<svg width="21" height="22" viewBox="0 0 21 22" fill="none" xmlns="http://www.w3.org/2000/svg">
<path fillRule="evenodd" clipRule="evenodd" d="M6.71322 0.428711H14.3695C17.8926 0.428711 20.7497 3.36073 20.7497 6.97633V14.8335C20.7497 18.4491 17.8926 21.3811 14.3695 21.3811H6.71322C3.19006 21.3811 0.333008 18.4491 0.333008 14.8335V6.97633C0.333008 3.36073 3.19006 0.428711 6.71322 0.428711ZM14.3695 19.4168C16.8322 19.4168 18.8356 17.3609 18.8356 14.8335V6.97633C18.8356 4.44895 16.8322 2.393 14.3695 2.393H6.71322C4.25046 2.393 2.24707 4.44895 2.24707 6.97633V14.8335C2.24707 17.3609 4.25046 19.4168 6.71322 19.4168H14.3695Z" fill="#1E2833"/>
<path fillRule="evenodd" clipRule="evenodd" d="M5.4375 10.9051C5.4375 8.01235 7.72289 5.66699 10.5417 5.66699C13.3604 5.66699 15.6458 8.01235 15.6458 10.9051C15.6458 13.7978 13.3604 16.1432 10.5417 16.1432C7.72289 16.1432 5.4375 13.7978 5.4375 10.9051ZM7.35156 10.9051C7.35156 12.7096 8.78328 14.1789 10.5417 14.1789C12.3001 14.1789 13.7318 12.7096 13.7318 10.9051C13.7318 9.09925 12.3001 7.63128 10.5417 7.63128C8.78328 7.63128 7.35156 9.09925 7.35156 10.9051Z" fill="#1E2833"/>
<ellipse cx="16.0288" cy="5.27415" rx="0.68013" ry="0.697976" fill="#1E2833"/>
</svg>
