<svg width="21" height="18" viewBox="0 0 21 18" fill="none" xmlns="http://www.w3.org/2000/svg">
<path d="M20.2755 2.63756C19.5331 2.97175 18.7421 3.19327 17.9173 3.30082C18.7658 2.78097 19.4133 1.96406 19.7177 0.979415C18.9267 1.46342 18.0533 1.80529 17.1226 1.99607C16.3715 1.17532 15.3009 0.666992 14.1331 0.666992C11.8673 0.666992 10.0432 2.55434 10.0432 4.86806C10.0432 5.20097 10.0706 5.52108 10.138 5.82582C6.73558 5.65552 3.72492 3.98201 1.70242 1.43269C1.34933 2.06137 1.14221 2.78097 1.14221 3.55563C1.14221 5.01019 1.87211 6.29957 2.96009 7.04606C2.30256 7.03326 1.6575 6.83735 1.11102 6.52877C1.11102 6.54157 1.11102 6.55822 1.11102 6.57486C1.11102 8.61586 2.52964 10.3111 4.38994 10.7017C4.0568 10.7951 3.69373 10.84 3.31693 10.84C3.05491 10.84 2.7904 10.8246 2.54211 10.7683C3.07238 12.4315 4.57709 13.6543 6.36627 13.694C4.97385 14.8118 3.20588 15.4853 1.29193 15.4853C0.956306 15.4853 0.634403 15.47 0.3125 15.4277C2.12539 16.6275 4.2739 17.3125 6.59085 17.3125C14.1219 17.3125 18.2392 10.9104 18.2392 5.36102C18.2392 5.17536 18.233 4.9961 18.2243 4.81812C19.0365 4.22657 19.719 3.48776 20.2755 2.63756Z" fill="#1E2833"/>
</svg>
